<svg xmlns:xlink="http://www.w3.org/1999/xlink" xmlns="http://www.w3.org/2000/svg" version="1.1" width="51" height="60" viewBox="0 0 51 60">
<title>instagram</title>
<path fill="#222" d="M34.286 30c0-4.721-3.85-8.571-8.571-8.571s-8.571 3.85-8.571 8.571 3.85 8.571 8.571 8.571 8.571-3.85 8.571-8.571zM38.906 30c0 7.299-5.893 13.192-13.192 13.192s-13.192-5.893-13.192-13.192 5.893-13.192 13.192-13.192 13.192 5.893 13.192 13.192zM42.522 16.272c0 1.708-1.373 3.080-3.080 3.080s-3.080-1.373-3.080-3.080 1.373-3.080 3.080-3.080 3.080 1.373 3.080 3.080zM25.714 8.906c-3.75 0-11.786-0.301-15.167 1.038-1.172 0.469-2.042 1.038-2.946 1.942s-1.473 1.775-1.942 2.946c-1.339 3.382-1.038 11.417-1.038 15.167s-0.301 11.786 1.038 15.167c0.469 1.172 1.038 2.042 1.942 2.946s1.775 1.473 2.946 1.942c3.382 1.339 11.417 1.038 15.167 1.038s11.786 0.301 15.167-1.038c1.172-0.469 2.042-1.038 2.946-1.942s1.473-1.775 1.942-2.946c1.339-3.382 1.038-11.417 1.038-15.167s0.301-11.786-1.038-15.167c-0.469-1.172-1.038-2.042-1.942-2.946s-1.775-1.473-2.946-1.942c-3.382-1.339-11.417-1.038-15.167-1.038zM51.429 30c0 3.549 0.033 7.065-0.167 10.614-0.201 4.118-1.138 7.768-4.152 10.781s-6.663 3.951-10.781 4.152c-3.549 0.201-7.065 0.167-10.614 0.167s-7.065 0.033-10.614-0.167c-4.118-0.201-7.768-1.138-10.781-4.152s-3.951-6.663-4.152-10.781c-0.201-3.549-0.167-7.065-0.167-10.614s-0.033-7.065 0.167-10.614c0.201-4.118 1.138-7.768 4.152-10.781s6.663-3.951 10.781-4.152c3.549-0.201 7.065-0.167 10.614-0.167s7.065-0.033 10.614 0.167c4.118 0.201 7.768 1.138 10.781 4.152s3.951 6.663 4.152 10.781c0.201 3.549 0.167 7.065 0.167 10.614z"/>
</svg>