<svg xmlns="http://www.w3.org/2000/svg" width="187" height="180" fill="none" viewBox="0 0 187 180"><path stroke="#000" d="M180.31 107.312C181.06 103.309 180.881 103.385 180.881 103.385L121.984 92.3423C121.984 92.3423 121.844 92.2068 121.094 96.2093C120.343 100.213 113.738 102.543 112.123 111.152C110.509 119.762 116.072 123.576 115.238 128.025C114.404 132.472 114.577 132.004 114.577 132.004L173.418 143.037C173.418 143.037 173.409 143.535 174.243 139.088C175.077 134.639 181.644 133.099 183.258 124.489C184.873 115.88 179.559 111.315 180.31 107.312Z"/><path stroke="#000" d="M92.0147 133.036L87.1526 137.619L90.8833 143.163L85.1223 146.548L87.5164 152.787L81.1437 154.796L82.0869 161.411L75.4271 161.956L74.8821 168.616L68.2673 167.673L66.2574 174.045L60.0193 171.651L56.6343 177.412L51.0904 173.681L46.5073 178.544L41.9242 173.681L36.3803 177.412L32.9952 171.651L26.757 174.045L24.747 167.673L18.132 168.616L17.5872 161.956L10.9273 161.411L11.8707 154.796L5.4981 152.786L7.89233 146.548L2.13135 143.163L5.86203 137.619L1 133.036L5.86203 128.453L2.1314 122.909L7.89236 119.524L5.49821 113.286L11.8709 111.276L10.9277 104.661L17.5876 104.116L18.1325 97.4562L24.7474 98.3995L26.7573 92.0269L32.9953 94.4212L36.3804 88.6602L41.9242 92.3909L46.5073 87.5288L51.0904 92.3909L56.6344 88.6602L60.0195 94.4212L66.2576 92.0271L68.2676 98.3998L74.8826 97.4566L75.4275 104.116L82.0873 104.661L81.144 111.276L87.5165 113.286L85.1223 119.524L90.8833 122.909L87.1526 128.453L92.0147 133.036Z"/><path stroke="#000" d="M91.6278 5.36662L90.713 18.4485L24.4304 13.8136L20.7833 65.97L87.0659 70.6049L86.1513 83.6843L124.815 47.0441L91.6278 5.36662Z"/></svg>