<svg xmlns="http://www.w3.org/2000/svg" width="209" height="180" fill="none" viewBox="0 0 209 180"><path stroke="#000" d="M95.1287 90.6481C94.6203 84.8366 94.4015 85.0102 94.4015 85.0102L8.88451 92.492C8.88451 92.492 8.63966 92.3589 9.1481 98.1705C9.65667 103.983 1.44154 109.746 2.53519 122.246C3.62896 134.748 12.7752 137.864 13.3404 144.324C13.9054 150.782 13.9628 150.07 13.9628 150.07L99.3993 142.595C99.3993 142.595 99.5796 143.286 99.0146 136.829C98.4494 130.368 106.916 125.712 105.822 113.21C104.728 100.709 95.6373 96.4611 95.1287 90.6481Z"/><path stroke="#000" d="M181.36 126.9C184.849 127.485 188.626 127.782 192.278 128.203C190.088 131.174 187.681 133.927 185.482 136.889C188.632 138.68 191.798 140.456 195.026 142.171C191.983 144.095 188.704 145.785 185.482 147.528C187.606 150.59 190.094 153.285 192.278 156.286C188.603 156.661 184.987 157.094 181.36 157.516C182.345 161.066 183.331 164.616 184.397 168.083C181.005 167.258 177.343 166.072 173.839 165.118C173.261 168.615 172.951 172.382 172.538 176.046C169.568 173.856 166.82 171.443 163.86 169.243C161.999 172.373 160.4 175.765 158.438 178.796C156.753 175.56 154.894 172.495 153.231 169.243C150.193 171.386 147.483 173.861 144.482 176.046C144.106 172.37 143.666 168.756 143.253 165.118C139.671 166.09 136.164 167.14 132.623 168.156C133.636 164.633 134.651 161.114 135.661 157.59C132.018 157 128.472 156.711 124.742 156.286C126.92 153.303 129.346 150.568 131.539 147.6C128.349 145.824 125.209 143.996 121.922 142.318C125.04 140.444 128.281 138.695 131.539 136.961C129.409 133.907 126.917 131.212 124.742 128.203C128.424 127.836 132.031 127.392 135.661 126.973C134.688 123.386 133.633 119.883 132.623 116.333C136.122 117.363 139.656 118.361 143.181 119.373C143.753 115.867 144.052 112.089 144.482 108.443C147.448 110.64 150.193 113.056 153.159 115.247C154.937 112.081 156.708 108.909 158.438 105.692C160.357 108.742 162.032 112.036 163.788 115.247C166.838 113.112 169.527 110.617 172.538 108.443C172.903 112.132 173.342 115.746 173.767 119.373C177.347 118.397 180.856 117.349 184.397 116.333C183.363 119.835 182.369 123.375 181.36 126.9Z"/><path stroke="#000" d="M204.603 51.6288L197.116 55.9671L200.884 63.7522L192.282 64.8448L193.096 73.4662L184.562 71.8751L183.075 80.4178L175.134 76.9044L171.938 84.9713L164.779 80.0562L160.262 87.469L153.972 81.4818L148.391 88.1324L143.032 81.2988L136.568 87.0981L132.226 79.5793L124.991 84.3833L121.83 76.2986L113.926 79.8957L112.179 71.3961L103.749 73.4772L103.767 64.8059L95.0876 64.8909L97.3862 56.5415L89.1048 53.9718L94.1675 46.9598L87.5477 41.3878L95.0346 37.0496L91.2669 29.2645L99.8689 28.1719L99.0549 19.5505L107.588 21.1416L109.076 12.5989L117.016 16.1123L120.213 8.04541L127.372 12.9604L131.889 5.54764L138.178 11.5349L143.76 4.88425L149.119 11.7179L155.583 5.91853L159.925 13.4374L167.159 8.63341L170.321 16.7181L178.224 13.121L179.972 21.6206L188.402 19.5395L188.383 28.2107L197.063 28.1258L194.764 36.4752L203.046 39.0449L197.983 46.0569L204.603 51.6288Z"/></svg>