<svg xmlns="http://www.w3.org/2000/svg" xmlns:xlink="http://www.w3.org/1999/xlink" width="51" height="60" version="1.1" viewBox="0 0 51 60"><title>twitter-square</title><path fill="#222" d="M42.857 20.424c-1.272 0.569-2.612 0.938-4.051 1.138 1.473-0.871 2.578-2.277 3.114-3.917-1.373 0.804-2.879 1.406-4.487 1.708-1.272-1.373-3.114-2.21-5.123-2.21-3.884 0-7.031 3.147-7.031 7.031 0 0.536 0.033 1.105 0.167 1.607-5.859-0.301-11.049-3.080-14.531-7.366-0.603 1.038-0.971 2.277-0.971 3.549 0 2.444 1.138 4.587 3.047 5.859-1.172-0.033-2.277-0.368-3.348-0.871v0.067c0 3.415 2.578 6.261 5.792 6.897-0.603 0.167-1.071 0.268-1.708 0.268-0.435 0-0.871-0.067-1.306-0.134 0.904 2.779 3.482 4.821 6.563 4.888-2.411 1.875-5.424 3.013-8.739 3.013-0.569 0-1.138-0.033-1.674-0.1 3.114 1.975 6.797 3.147 10.781 3.147 12.924 0 20.022-10.714 20.022-20.022 0-0.301 0-0.603-0.033-0.904 1.373-0.971 2.578-2.21 3.516-3.65zM51.429 13.929v32.143c0 5.324-4.319 9.643-9.643 9.643h-32.143c-5.324 0-9.643-4.319-9.643-9.643v-32.143c0-5.324 4.319-9.643 9.643-9.643h32.143c5.324 0 9.643 4.319 9.643 9.643z"/></svg>