<svg xmlns:xlink="http://www.w3.org/1999/xlink" xmlns="http://www.w3.org/2000/svg" version="1.1" width="51" height="60" viewBox="0 0 51 60">
<title>facebook-square</title>
<path fill="#222" d="M41.786 4.286c5.324 0 9.643 4.319 9.643 9.643v32.143c0 5.324-4.319 9.643-9.643 9.643h-6.295v-19.922h6.663l1.004-7.768h-7.667v-4.955c0-2.243 0.603-3.75 3.85-3.75l4.085-0.033v-6.931c-0.703-0.1-3.147-0.301-5.96-0.301-5.926 0-10.011 3.616-10.011 10.246v5.725h-6.696v7.768h6.696v19.922h-17.813c-5.324 0-9.643-4.319-9.643-9.643v-32.143c0-5.324 4.319-9.643 9.643-9.643h32.143z"/>
</svg>