<?xml version="1.0" encoding="UTF-8"?>
<svg xmlns="http://www.w3.org/2000/svg" width="508" height="126" viewBox="0 0 508 126" fill="none">
  <path d="M202.966 124.663H201.729V0H202.966V124.663Z" fill="black"></path>
  <path d="M214.705 30.2805L218.86 25.3013C221.729 27.6755 224.738 29.1841 228.39 29.1841C231.258 29.1841 232.998 28.0382 232.998 26.1751V26.0844C232.998 24.312 231.901 23.3969 226.568 22.0285C220.138 20.3879 215.991 18.6073 215.991 12.2678V12.1771C215.991 6.38171 220.64 2.54834 227.161 2.54834C231.811 2.54834 235.776 4.01574 239.016 6.61254L235.364 11.9051C232.536 9.94304 229.758 8.75593 227.062 8.75593C224.367 8.75593 222.957 9.98426 222.957 11.5423V11.633C222.957 13.7269 224.325 14.4112 229.84 15.8291C236.32 17.5191 239.964 19.8439 239.964 25.4084V25.4991C239.964 31.8386 235.133 35.3917 228.241 35.3917C223.41 35.3834 218.53 33.7017 214.705 30.2805Z" fill="black"></path>
  <path d="M240.937 3.00879H248.694L257.037 25.4979L265.379 3.00879H272.947L260.046 35.1596H253.838L240.937 3.00879Z" fill="black"></path>
  <path d="M276.756 3.00879H300.836V9.2576H283.73V15.7372H298.784V21.9943H283.73V28.6965H301.059V34.9453H276.748V3.00879H276.756Z" fill="black"></path>
  <path d="M308.091 3.00879H314.57L329.533 22.6703V3.00879H336.466V34.9371H330.489L315.024 14.6326V34.9371H308.091V3.00879Z" fill="black"></path>
  <path d="M342.146 30.28L346.301 25.3008C349.17 27.675 352.179 29.1836 355.831 29.1836C358.699 29.1836 360.439 28.0377 360.439 26.1746V26.0839C360.439 24.3115 359.342 23.3964 354.009 22.028C347.579 20.3875 343.432 18.6068 343.432 12.2673V12.1766C343.432 6.38122 348.081 2.54785 354.602 2.54785C359.252 2.54785 363.217 4.01525 366.457 6.61205L362.805 11.9046C359.977 9.94255 357.199 8.75544 354.503 8.75544C351.816 8.75544 350.398 9.98377 350.398 11.5418V11.6325C350.398 13.7265 351.766 14.4107 357.281 15.8286C363.761 17.5186 367.413 19.8434 367.413 25.4079V25.4986C367.413 31.8381 362.574 35.3912 355.69 35.3912C350.851 35.3829 345.971 33.7012 342.146 30.28Z" fill="black"></path>
  <path d="M373.711 3.00879H380.735V16.9656L393.686 3.00879H402.169L389.169 16.5534L402.754 34.9371H394.321L384.42 21.343L380.727 25.1682V34.9288H373.703V3.00879H373.711Z" fill="black"></path>
  <path d="M217.211 47.7646H224.235V79.6929H217.211V47.7646Z" fill="black"></path>
  <path d="M232.289 47.7646H238.769L253.723 67.4261V47.7646H260.656V79.6929H254.679L239.222 59.3967V79.6929H232.289V47.7646Z" fill="black"></path>
  <path d="M266.22 75.0438L270.375 70.0727C273.244 72.447 276.253 73.9473 279.905 73.9473C282.774 73.9473 284.513 72.8097 284.513 70.9383V70.8477C284.513 69.067 283.417 68.1602 278.083 66.7917C271.653 65.1512 267.498 63.3705 267.498 57.031V56.9403C267.498 51.1532 272.148 47.3198 278.668 47.3198C283.318 47.3198 287.292 48.779 290.531 51.384L286.879 56.6765C284.052 54.7145 281.274 53.5274 278.578 53.5274C275.89 53.5274 274.481 54.7557 274.481 56.3138V56.4045C274.481 58.5067 275.841 59.1909 281.372 60.6006C287.844 62.2906 291.496 64.6153 291.496 70.1799V70.2706C291.496 76.6183 286.665 80.1632 279.773 80.1632C274.934 80.1467 270.054 78.4649 266.22 75.0438Z" fill="black"></path>
  <path d="M306.895 47.543H313.375L327.06 79.6938H319.715L316.796 72.53H303.293L300.375 79.6938H293.211L306.895 47.543ZM314.282 66.3306L310.045 55.9764L305.799 66.3306H314.282Z" fill="black"></path>
  <path d="M330.852 47.7646H338.42L346.812 61.268L355.204 47.7646H362.772V79.6929H355.789V58.8526L346.812 72.4878H346.63L337.735 58.9845V79.6929H330.844V47.7646H330.852Z" fill="black"></path>
  <path d="M370.208 47.7646H377.232V73.3122H393.142V79.6929H370.2V47.7646H370.208Z" fill="black"></path>
  <path d="M398.138 47.7646H405.162V79.6929H398.138V47.7646Z" fill="black"></path>
  <path d="M413.208 47.7646H419.687L434.641 67.4261V47.7646H441.574V79.6929H435.598L420.141 59.4049V79.7012H413.208V47.7646Z" fill="black"></path>
  <path d="M447.015 63.8242V63.7335C447.015 54.6654 454.08 47.2212 463.75 47.2212C469.496 47.2212 472.967 48.7793 476.289 51.5987L471.87 56.9324C469.406 54.8797 467.213 53.7008 463.52 53.7008C458.408 53.7008 454.352 58.2102 454.352 63.6429V63.7335C454.352 69.5702 458.367 73.8652 464.014 73.8652C466.57 73.8652 468.853 73.2222 470.634 71.9444V67.3855H463.561V61.3181H477.427V75.1842C474.146 77.9706 469.628 80.2459 463.792 80.2459C453.858 80.2459 447.015 73.2634 447.015 63.8242Z" fill="black"></path>
  <path d="M481.961 75.0438L486.108 70.0727C488.985 72.447 491.994 73.9473 495.637 73.9473C498.515 73.9473 500.246 72.8097 500.246 70.9383V70.8477C500.246 69.067 499.141 68.1602 493.816 66.7917C487.385 65.1512 483.231 63.3705 483.231 57.031V56.9403C483.231 51.1532 487.88 47.3198 494.401 47.3198C499.05 47.3198 503.024 48.779 506.255 51.384L502.612 56.6765C499.784 54.7145 497.006 53.5274 494.31 53.5274C491.623 53.5274 490.213 54.7557 490.213 56.3138V56.4045C490.213 58.5067 491.581 59.1909 497.097 60.6006C503.576 62.2906 507.22 64.6153 507.22 70.1799V70.2706C507.22 76.6183 502.389 80.1632 495.497 80.1632C490.666 80.1467 485.794 78.4649 481.961 75.0438Z" fill="black"></path>
  <path d="M217.26 92.5283H224.284V106.485L237.235 92.5283H245.718L232.718 106.073L246.312 124.457H237.87L227.969 110.871L224.276 114.704V124.465H217.252V92.5283H217.26Z" fill="black"></path>
  <path d="M245.627 108.588V108.497C245.627 99.4208 252.791 91.9849 262.643 91.9849C272.494 91.9849 279.567 99.3301 279.567 108.407V108.497C279.567 117.574 272.403 125.01 262.56 125.01C252.701 125.01 245.627 117.664 245.627 108.588ZM272.222 108.588V108.497C272.222 103.023 268.207 98.4645 262.552 98.4645C256.897 98.4645 252.973 102.933 252.973 108.407V108.497C252.973 113.971 256.987 118.53 262.643 118.53C268.298 118.53 272.222 114.062 272.222 108.588Z" fill="black"></path>
  <path d="M284.909 92.5283H291.389L306.351 112.19V92.5283H313.284V124.457H307.308L291.842 104.16V124.457H284.909V92.5283Z" fill="black"></path>
  <path d="M327.868 99.008H318.148V92.5283H344.602V99.008H334.883V124.457H327.859V99.008H327.868Z" fill="black"></path>
  <path d="M349.483 92.5283H364.083C368.139 92.5283 371.288 93.666 373.39 95.7681C375.162 97.5488 376.127 100.055 376.127 103.072V103.163C376.127 108.323 373.34 111.555 369.284 113.064L377.083 124.465H368.872L362.03 114.251H361.939H356.507V124.465H349.483V92.5283ZM363.629 108.035C367.05 108.035 369.012 106.213 369.012 103.526V103.435C369.012 100.426 366.919 98.8761 363.489 98.8761H356.515V108.043H363.629V108.035Z" fill="black"></path>
  <path d="M380.694 108.588V108.497C380.694 99.4208 387.858 91.9849 397.701 91.9849C407.552 91.9849 414.625 99.3301 414.625 108.407V108.497C414.625 117.574 407.47 125.01 397.619 125.01C387.767 125.01 380.694 117.664 380.694 108.588ZM407.28 108.588V108.497C407.28 103.023 403.266 98.4645 397.61 98.4645C391.955 98.4645 388.031 102.933 388.031 108.407V108.497C388.031 113.971 392.046 118.53 397.701 118.53C403.356 118.53 407.28 114.062 407.28 108.588Z" fill="black"></path>
  <path d="M420.314 92.5283H427.337V118.068H443.256V124.448H420.314V92.5283V92.5283Z" fill="black"></path>
  <path d="M447.189 92.5283H454.212V118.068H470.131V124.448H447.189V92.5283V92.5283Z" fill="black"></path>
  <path d="M78.0637 101.902H83.0099V111.745L92.1441 101.902H98.1209L88.9537 111.457L98.533 124.416H92.5892L85.615 114.837L83.0099 117.541V124.424H78.0637V101.902Z" fill="#D71920"></path>
  <path d="M97.2057 113.221V113.155C97.2057 106.758 102.251 101.515 109.192 101.515C116.142 101.515 121.121 106.692 121.121 113.089V113.155C121.121 119.552 116.076 124.795 109.126 124.795C102.193 124.795 97.2057 119.618 97.2057 113.221ZM115.952 113.221V113.155C115.952 109.297 113.125 106.082 109.135 106.082C105.153 106.082 102.383 109.231 102.383 113.089V113.155C102.383 117.013 105.21 120.228 109.2 120.228C113.182 120.236 115.952 117.079 115.952 113.221Z" fill="#D71920"></path>
  <path d="M123.767 101.902H128.334L138.878 115.76V101.902H143.767V124.408H139.554L128.656 110.097V124.408H123.767V101.902V101.902Z" fill="#D71920"></path>
  <path d="M152.926 106.469H146.075V101.902H164.723V106.469H157.88V124.408H152.926V106.469Z" fill="#D71920"></path>
  <path d="M164.129 113.221V113.155C164.129 106.758 169.174 101.515 176.124 101.515C183.073 101.515 188.053 106.692 188.053 113.089V113.155C188.053 119.552 183.007 124.795 176.058 124.795C169.117 124.795 164.129 119.618 164.129 113.221ZM182.876 113.221V113.155C182.876 109.297 180.048 106.082 176.058 106.082C172.068 106.082 169.306 109.231 169.306 113.089V113.155C169.306 117.013 172.134 120.228 176.124 120.228C180.106 120.236 182.876 117.079 182.876 113.221Z" fill="#D71920"></path>
  <path d="M141.887 0.345703C119.431 0.345703 100.528 15.8688 95.351 36.7504C90.1739 15.8688 71.2708 0.345703 48.8147 0.345703C22.3768 0.345703 0.868652 21.8538 0.868652 48.2917C0.868652 74.6554 22.2613 96.114 48.5921 96.2295L30.0105 124.399H56.0362C69.5066 103.97 87.0824 77.3182 88.8631 74.5977C91.7896 70.1213 94.0155 65.1585 95.3427 59.8248C100.52 80.7064 119.423 96.2295 141.879 96.2295C168.317 96.2295 189.825 74.7214 189.825 48.2835C189.833 21.8538 168.325 0.345703 141.887 0.345703ZM48.8147 74.507C34.355 74.507 22.5911 62.7431 22.5911 48.2835C22.5911 33.8238 34.355 22.0599 48.8147 22.0599C63.2743 22.0599 75.0382 33.8238 75.0382 48.2835C75.0382 62.7513 63.2743 74.507 48.8147 74.507ZM141.887 74.507C127.428 74.507 115.664 62.7431 115.664 48.2835C115.664 33.8238 127.428 22.0599 141.887 22.0599C156.347 22.0599 168.111 33.8238 168.111 48.2835C168.111 62.7513 156.347 74.507 141.887 74.507Z" fill="#D71920"></path>
</svg>
