<svg xmlns:xlink="http://www.w3.org/1999/xlink" xmlns="http://www.w3.org/2000/svg" version="1.1" width="51" height="60" viewBox="0 0 51 60">
<title>youtube-square</title>
<path fill="#222" d="M30.77 43.627v-5.257c0-1.105-0.335-1.674-0.971-1.674-0.368 0-0.737 0.167-1.105 0.536v7.5c0.368 0.368 0.737 0.536 1.105 0.536 0.636 0 0.971-0.536 0.971-1.641zM36.931 39.542h2.21v-1.138c0-1.138-0.368-1.708-1.105-1.708s-1.105 0.569-1.105 1.708v1.138zM17.813 30.636v2.344h-2.679v14.163h-2.478v-14.163h-2.612v-2.344h7.768zM24.542 34.855v12.288h-2.243v-1.339c-0.871 1.004-1.708 1.507-2.545 1.507-0.703 0-1.205-0.301-1.406-0.938-0.134-0.368-0.201-0.938-0.201-1.808v-9.71h2.21v9.040c0 0.502 0 0.804 0.033 0.871 0.033 0.335 0.201 0.502 0.502 0.502 0.469 0 0.904-0.335 1.406-1.038v-9.375h2.243zM32.98 38.571v4.888c0 1.105-0.067 1.942-0.234 2.444-0.268 0.938-0.871 1.406-1.775 1.406-0.77 0-1.54-0.469-2.277-1.373v1.205h-2.243v-16.507h2.243v5.391c0.703-0.871 1.473-1.339 2.277-1.339 0.904 0 1.507 0.469 1.775 1.406 0.167 0.502 0.234 1.306 0.234 2.478zM41.384 42.891v0.301c0 0.737-0.033 1.205-0.067 1.44-0.067 0.502-0.234 0.938-0.502 1.339-0.603 0.904-1.54 1.339-2.679 1.339-1.172 0-2.076-0.435-2.712-1.272-0.469-0.603-0.703-1.574-0.703-2.879v-4.319c0-1.306 0.201-2.243 0.67-2.879 0.636-0.837 1.54-1.272 2.679-1.272 1.105 0 2.009 0.435 2.612 1.272 0.469 0.636 0.703 1.574 0.703 2.879v2.545h-4.453v2.176c0 1.138 0.368 1.708 1.138 1.708 0.536 0 0.871-0.301 1.004-0.871 0-0.134 0.033-0.636 0.033-1.507h2.277zM26.283 15.301v5.223c0 1.138-0.368 1.708-1.071 1.708-0.737 0-1.071-0.569-1.071-1.708v-5.223c0-1.138 0.335-1.741 1.071-1.741 0.703 0 1.071 0.603 1.071 1.741zM44.129 39.174v0c0-2.879 0-5.926-0.636-8.705-0.469-1.975-2.076-3.415-3.984-3.616-4.554-0.502-9.174-0.502-13.795-0.502-4.587 0-9.208 0-13.761 0.502-1.942 0.201-3.549 1.641-3.984 3.616-0.636 2.779-0.67 5.826-0.67 8.705v0c0 2.846 0 5.893 0.67 8.705 0.435 1.942 2.042 3.382 3.951 3.616 4.587 0.502 9.208 0.502 13.795 0.502s9.208 0 13.795-0.502c1.908-0.234 3.516-1.674 3.951-3.616 0.67-2.813 0.67-5.859 0.67-8.705zM18.85 17.377l3.013-9.911h-2.511l-1.708 6.529-1.775-6.529h-2.612c0.502 1.54 1.071 3.080 1.574 4.621 0.804 2.344 1.306 4.085 1.54 5.29v6.73h2.478v-6.73zM28.527 20.089v-4.353c0-1.306-0.234-2.277-0.703-2.913-0.636-0.837-1.507-1.272-2.612-1.272-1.138 0-2.009 0.435-2.612 1.272-0.469 0.636-0.703 1.607-0.703 2.913v4.353c0 1.306 0.234 2.277 0.703 2.913 0.603 0.837 1.473 1.272 2.612 1.272 1.105 0 1.975-0.435 2.612-1.272 0.469-0.603 0.703-1.607 0.703-2.913zM34.587 24.107h2.243v-12.388h-2.243v9.475c-0.502 0.703-0.971 1.038-1.406 1.038-0.301 0-0.502-0.167-0.536-0.536-0.033-0.067-0.033-0.335-0.033-0.871v-9.107h-2.243v9.81c0 0.871 0.067 1.44 0.201 1.842 0.234 0.603 0.737 0.904 1.44 0.904 0.837 0 1.674-0.502 2.578-1.507v1.339zM51.429 13.929v32.143c0 5.324-4.319 9.643-9.643 9.643h-32.143c-5.324 0-9.643-4.319-9.643-9.643v-32.143c0-5.324 4.319-9.643 9.643-9.643h32.143c5.324 0 9.643 4.319 9.643 9.643z"/>
</svg>